<svg xmlns="http://www.w3.org/2000/svg" width="20" height="20" viewBox="0 0 20 20">
  <g id="smile" transform="translate(-2 -2)">
    <path id="Icon_color" data-name="Icon color" d="M10,20A10,10,0,1,1,20,10,10.011,10.011,0,0,1,10,20ZM10,2a8,8,0,1,0,8,8A8.009,8.009,0,0,0,10,2ZM8.024,16.138c-.08,0-.157-.069-.21-.188a2.3,2.3,0,0,1-.041-.5c.015-.214.028-.431.04-.642C7.927,12.849,8.034,11,10.031,11c1.955,0,2.047,1.79,2.144,3.686.014.271.028.55.048.823a.923.923,0,0,1-.067.442c-.053.12-.129.188-.21.188H8.024ZM13,10a2,2,0,1,1,2-2A2,2,0,0,1,13,10ZM7,10A2,2,0,1,1,9,8,2,2,0,0,1,7,10Z" transform="translate(2 2)" fill="#a0a0a0"/>
  </g>
</svg>
