<svg xmlns="http://www.w3.org/2000/svg" width="28" height="28"><path data-name="Bounding box" fill="rgba(255,255,255,0)" d="M0 0h28v28H0z"/><path data-name="Icon color" d="M21.98 24h-7.49a4.03 4.03 0 01-2.89-1.22 4.03 4.03 0 00-2.83-1.16H8v-9.78h1.07a2.38 2.38 0 002.04-1.15l1.46-2.44a4.87 4.87 0 012.28-1.96l.52-.2a2.42 2.42 0 001.38-1.5l.72-2.17a.6.6 0 01.56-.42h.17A1.82 1.82 0 0120 3.83v.48a5.17 5.17 0 01-.54 2.44l-1.86 3.8h6A2.42 2.42 0 0126 13v3.47a7.47 7.47 0 01-.52 2.73l-1.28 3.26A2.4 2.4 0 0121.98 24zM5 22.78H2.6a.6.6 0 01-.6-.61v-11a.6.6 0 01.6-.61H5a.6.6 0 01.6.6v11a.6.6 0 01-.6.62z" 
/></svg>
