<svg xmlns="http://www.w3.org/2000/svg" width="28" height="28">
<path data-name="Bounding box" fill="rgba(255,255,255,0)" d="M0 0h28v28H0z"/>
<path data-name="Icon color" 
d="M14.2 23.3h-.4a.8.8 0 01-.54-.2l-2.33-2.18-.61-.58c-2.45-2.25-6.54-6.03-6.54-9.47A5.46 5.46 0 019.4 5.61 6.73 6.73 0 0114 7.59a6.73 6.73 0 014.6-1.98 5.46 5.46 0 015.62 5.26c0 3.44-4.09 7.22-6.53 9.47-.23.2-.43.4-.62.58l-2.33 2.18a.8.8 0 01-.55.2zM9.4 7.53a3.47 3.47 0 00-3.58 3.35c0 1.14.74 2.6 2.19 4.34a42.01 42.01 0 003.74 3.8L14 21.07 16.25 19A42.09 42.09 0 0020 15.2c1.45-1.73 2.19-3.2 2.19-4.33a3.27 3.27 0 00-1.06-2.38 3.68 3.68 0 00-2.52-.97h-.03a5.26 5.26 0 00-3.9 2.2.54.54 0 01-.41.2h-.46a.8.8 0 01-.62-.28A5.16 5.16 0 009.4 7.52z" 
/></svg>
